<svg width="191" height="184" viewBox="0 0 191 184" fill="none" xmlns="http://www.w3.org/2000/svg">
<path d="M141.781 72.748L145.827 63.8466L148.631 68.5131C152.577 75.0816 154.661 82.6373 154.661 90.3756L152.13 115.947L141.355 127.903L121.639 136.256C121.612 137.221 121.331 138.219 120.736 139.172C119.909 140.499 119.648 142.099 120.015 143.602L121.25 148.668C121.649 150.304 122.628 151.727 124.004 152.672L131.08 157.531C131.444 157.781 131.453 158.32 131.098 158.595C130.982 158.685 130.84 158.734 130.694 158.734L129.794 158.734C129.166 158.734 128.555 158.552 128.034 158.21L121.198 153.727C118.652 152.057 116.399 149.979 114.524 147.573L111.825 144.108C111.353 143.503 110.769 142.999 110.102 142.622C109.224 142.126 108.548 141.469 108.064 140.721C107.824 140.765 107.583 140.808 107.342 140.849L93.5589 143.192L79.4387 141.7C68.2153 140.514 57.795 135.511 49.8902 127.512L36.1078 113.565L52.6296 115.723C52.8736 115.755 53.1204 115.763 53.3668 115.747C57.9291 115.453 58.369 108.82 53.8752 108.08L42.3064 106.174C41.2 105.992 40.1893 105.45 39.4276 104.631L25.6939 89.8598L41.972 91.5382C42.2261 91.5644 42.4825 91.5674 42.738 91.5472L50.2366 90.9529C53.9466 90.6589 54.3612 85.3123 50.7313 84.5732C50.5795 84.5423 50.4303 84.5003 50.285 84.4475L44.032 82.1749C37.6665 79.8614 32.5742 74.9937 29.9519 68.7157L49.354 70.9482L49.7305 70.8823C51.0399 70.653 50.908 68.7157 49.5829 68.7157C49.4319 68.7157 49.2832 68.6839 49.1462 68.6224L38.5148 63.8466L36.4089 62.1455C32.0133 58.5947 28.2671 54.3014 25.3326 49.4514L22.8977 45.4271L26.62 47.5006C31.3902 50.1579 37.0362 50.8144 42.354 49.33C44.8308 49.9528 46.5718 46.8383 44.7356 45.0695L39.3267 39.8594C38.7939 39.3462 38.3993 38.7046 38.179 37.993L31.934 17.827L53.653 23.6395C54.5026 23.8669 55.2988 24.2553 55.9993 24.7843L62.8077 29.9255C65.4669 31.9335 69.2454 29.5459 68.6489 26.2345L72.4267 15.0613L80.8323 23.3607C82.0225 24.5359 83.0203 25.8939 83.7898 27.386L86.6965 33.0222C87.0006 33.612 87.0329 34.3104 86.7851 34.936C85.8564 37.2799 88.7625 39.1645 90.5272 37.3628L91.5697 36.2985C92.004 35.8551 92.271 35.274 92.3234 34.6581L93.5589 20.1506L104.657 37.5129L108.639 53.4882C111.089 56.8848 116.424 55.7204 117.381 51.5801L119.441 42.666L125.707 53.3773C127.783 56.9251 129.408 60.7266 130.547 64.6946L132.724 72.2804C134.018 76.561 139.91 76.8651 141.781 72.748Z" fill="#11A850"/>
<path d="M55.961 104.5L48.3586 100.555L49.5465 105.34C51.2742 112.299 54.6939 118.836 59.5074 124.382L76.8759 141.246L90.7462 143.832L107.766 138.898C108.366 139.579 109.157 140.142 110.134 140.505C111.433 140.988 112.527 141.924 113.197 143.124L115.703 147.616C116.46 148.971 116.738 150.512 116.492 151.986L115.261 159.374C115.2 159.739 115.504 160.085 115.885 160.085C116.032 160.085 116.171 160.033 116.275 159.937L116.802 159.451C117.168 159.114 117.414 158.669 117.507 158.177L118.836 151.14C119.328 148.539 119.397 145.856 119.04 143.187L118.495 139.108C118.401 138.404 118.443 137.698 118.619 137.025C118.843 136.164 118.85 135.317 118.684 134.522C119.305 134.18 119.918 133.824 120.522 133.455L128.875 128.347L134.375 121.878C141.677 113.292 145.535 102.305 145.284 90.8118L144.949 75.4486L136.42 86.0712C136.269 86.2593 136.097 86.4301 135.907 86.5805C132.744 89.0853 128.261 84.8995 130.654 81.6754L136.556 73.7245C137.168 72.8996 137.471 71.8832 137.418 70.8345L136.498 52.7658L127.82 62.9102C127.658 63.1006 127.475 63.2735 127.275 63.4264L122.677 66.9412C120.034 68.9618 116.337 65.5865 118.194 62.8482C118.278 62.725 118.351 62.595 118.414 62.4595L120.459 58.0196C123.029 52.4437 123.165 45.9677 120.839 40.0175L110.592 52.3306L110.335 52.4859C109.313 53.1025 108.173 51.6896 109.045 50.8867C109.152 50.7876 109.234 50.6648 109.285 50.5275L112.687 41.2707L112.854 39.3593C113.316 34.082 112.895 28.7169 111.609 23.4724L110.631 19.4883L109.599 23.35C108.45 27.6453 105.467 31.1594 101.387 33.0242C100.277 34.8567 97.3139 33.917 97.318 31.7336L97.3318 24.5258C97.3329 23.9044 97.1872 23.2827 96.906 22.7093L88.106 4.76907L78.6818 20.9319C78.3187 21.5547 78.0871 22.2477 77.9998 22.9724L77.1448 30.0777C76.7981 32.959 72.9152 33.6103 71.3087 31.0566L62.1182 25.1639L62.2228 35.619C62.2385 37.1938 62.4883 38.7711 62.9644 40.3017L64.7316 45.984C64.8946 46.5082 65.2592 46.96 65.746 47.2413C67.7582 48.4037 66.8464 51.3423 64.5746 51.0165L63.7692 50.9011C63.2573 50.8277 62.7763 50.5868 62.4056 50.2181L52.6051 40.473L56.7148 59.0038L64.2302 72.613C64.8264 76.1524 60.7614 78.364 57.8285 76.0958L51.0468 70.8513L53.9488 82.0352C54.8919 85.6701 56.2446 89.2131 57.9813 92.5972L61.4412 99.3395C63.203 102.88 59.5204 106.348 55.961 104.5Z" fill="#34C571"/>
<path d="M70.2677 80.959C69.7977 80.959 69.3377 80.784 68.8877 80.434C68.4477 80.084 68.0227 79.644 67.6127 79.114C67.2127 78.574 66.8427 78.019 66.5027 77.449C66.2027 76.979 65.8677 76.389 65.4977 75.679C65.1377 74.959 64.7677 74.174 64.3877 73.324C64.0077 72.464 63.6427 71.594 63.2927 70.714C62.9427 69.824 62.6277 68.974 62.3477 68.164C62.0677 67.344 61.8427 66.614 61.6727 65.974C61.5127 65.324 61.4327 64.824 61.4327 64.474C61.4327 63.874 61.6327 63.419 62.0327 63.109C62.4427 62.789 62.9577 62.629 63.5777 62.629C64.1177 62.629 64.5827 62.759 64.9727 63.019C65.3627 63.269 65.6527 63.694 65.8427 64.294C66.0427 64.994 66.2677 65.784 66.5177 66.664C66.7777 67.544 67.0427 68.439 67.3127 69.349C67.5927 70.249 67.8677 71.109 68.1377 71.929C68.4077 72.749 68.6527 73.444 68.8727 74.014C69.1927 74.814 69.4777 75.449 69.7277 75.919C69.9777 76.389 70.1977 76.624 70.3877 76.624C70.5977 76.624 70.8727 76.404 71.2127 75.964C71.5627 75.514 71.9477 74.909 72.3677 74.149C72.6977 73.599 73.0427 72.964 73.4027 72.244C73.7727 71.514 74.1477 70.739 74.5277 69.919C74.9077 69.099 75.2777 68.269 75.6377 67.429C75.9977 66.589 76.3277 65.779 76.6277 64.999C76.8377 64.459 77.0727 64.049 77.3327 63.769C77.5927 63.489 77.8827 63.294 78.2027 63.184C78.5327 63.074 78.8877 63.019 79.2677 63.019C79.6477 63.019 79.9827 63.099 80.2727 63.259C80.5627 63.409 80.7877 63.614 80.9477 63.874C81.1177 64.124 81.2027 64.414 81.2027 64.744C81.2027 65.094 81.0877 65.584 80.8577 66.214C80.6377 66.844 80.3377 67.559 79.9577 68.359C79.5877 69.159 79.1627 69.994 78.6827 70.864C78.2127 71.734 77.7227 72.594 77.2127 73.444C76.7127 74.284 76.2227 75.064 75.7427 75.784C75.2727 76.494 74.8477 77.094 74.4677 77.584C74.0077 78.164 73.5377 78.714 73.0577 79.234C72.5877 79.744 72.1177 80.159 71.6477 80.479C71.1777 80.799 70.7177 80.959 70.2677 80.959ZM85.2492 80.749C84.5892 80.749 84.0992 80.509 83.7792 80.029C83.4692 79.549 83.3142 78.929 83.3142 78.169C83.3142 77.849 83.3142 77.399 83.3142 76.819C83.3142 76.239 83.3192 75.574 83.3292 74.824C83.3392 74.074 83.3492 73.279 83.3592 72.439C83.3792 71.599 83.3992 70.754 83.4192 69.904C83.4492 69.054 83.4842 68.244 83.5242 67.474C83.5642 66.704 83.6092 66.019 83.6592 65.419C83.7692 64.449 83.9642 63.764 84.2442 63.364C84.5242 62.964 84.9792 62.764 85.6092 62.764C86.1392 62.764 86.5242 62.969 86.7642 63.379C87.0042 63.779 87.1592 64.329 87.2292 65.029C87.2492 65.459 87.2692 65.999 87.2892 66.649C87.3092 67.299 87.3242 68.009 87.3342 68.779C87.3442 69.549 87.3492 70.339 87.3492 71.149C87.3592 71.949 87.3642 72.724 87.3642 73.474C87.3642 74.214 87.3642 74.889 87.3642 75.499C87.3642 76.099 87.3592 76.579 87.3492 76.939C87.3492 77.889 87.2842 78.644 87.1542 79.204C87.0242 79.754 86.8092 80.149 86.5092 80.389C86.2192 80.629 85.7992 80.749 85.2492 80.749ZM93.8892 81.049C92.5892 80.769 91.6992 80.114 91.2192 79.084C90.7492 78.054 90.5142 76.684 90.5142 74.974C90.5142 74.484 90.5242 73.924 90.5442 73.294C90.5742 72.654 90.6142 71.989 90.6642 71.299C90.7142 70.609 90.7692 69.934 90.8292 69.274C90.8892 68.614 90.9492 68.009 91.0092 67.459C91.0692 66.909 91.1242 66.464 91.1742 66.124C91.3742 64.794 91.6692 63.829 92.0592 63.229C92.4492 62.629 92.9792 62.329 93.6492 62.329C94.0792 62.329 94.3992 62.424 94.6092 62.614C94.8192 62.794 94.9592 63.054 95.0292 63.394C95.0992 63.734 95.1342 64.139 95.1342 64.609C95.1342 64.919 95.1242 65.284 95.1042 65.704C95.0842 66.114 95.0642 66.554 95.0442 67.024C95.0242 67.494 95.0042 67.989 94.9842 68.509C94.9642 69.019 94.9442 69.529 94.9242 70.039C94.9042 70.549 94.8892 71.049 94.8792 71.539C94.8792 72.019 94.8842 72.474 94.8942 72.904C94.9142 73.754 94.9642 74.464 95.0442 75.034C95.1342 75.604 95.3042 76.054 95.5542 76.384C95.8042 76.704 96.1692 76.939 96.6492 77.089C97.1392 77.229 97.7942 77.304 98.6142 77.314C99.3242 77.344 99.9942 77.374 100.624 77.404C101.264 77.424 101.789 77.449 102.199 77.479C102.799 77.439 103.289 77.424 103.669 77.434C104.049 77.434 104.334 77.469 104.524 77.539C104.684 77.619 104.799 77.734 104.869 77.884C104.949 78.024 104.989 78.224 104.989 78.484C104.989 78.904 104.859 79.259 104.599 79.549C104.339 79.839 103.974 80.084 103.504 80.284C103.044 80.484 102.509 80.659 101.899 80.809C101.259 80.959 100.519 81.079 99.6792 81.169C98.8392 81.259 98.0042 81.304 97.1742 81.304C96.8442 81.304 96.4742 81.294 96.0642 81.274C95.6642 81.264 95.2692 81.239 94.8792 81.199C94.4992 81.159 94.1692 81.109 93.8892 81.049ZM110.998 80.869C110.228 80.869 109.598 80.754 109.108 80.524C108.628 80.284 108.253 79.924 107.983 79.444C107.713 78.964 107.513 78.364 107.383 77.644C107.243 76.924 107.143 76.084 107.083 75.124C107.033 74.154 107.008 73.074 107.008 71.884C107.008 70.694 107.038 69.574 107.098 68.524C107.158 67.474 107.273 66.549 107.443 65.749C107.683 64.669 108.078 63.824 108.628 63.214C109.188 62.594 110.018 62.284 111.118 62.284C112.698 62.284 114.183 62.474 115.573 62.854C116.973 63.234 118.243 63.749 119.383 64.399C120.523 65.039 121.503 65.769 122.323 66.589C123.153 67.399 123.788 68.244 124.228 69.124C124.678 69.994 124.903 70.839 124.903 71.659C124.903 72.629 124.678 73.569 124.228 74.479C123.788 75.389 123.158 76.234 122.338 77.014C121.518 77.784 120.533 78.459 119.383 79.039C118.243 79.609 116.963 80.059 115.543 80.389C114.133 80.709 112.618 80.869 110.998 80.869ZM112.588 77.284C113.688 77.284 114.678 77.164 115.558 76.924C116.448 76.684 117.228 76.364 117.898 75.964C118.568 75.564 119.128 75.109 119.578 74.599C120.038 74.089 120.383 73.559 120.613 73.009C120.843 72.449 120.958 71.909 120.958 71.389C120.958 70.929 120.823 70.444 120.553 69.934C120.283 69.414 119.888 68.909 119.368 68.419C118.858 67.919 118.243 67.469 117.523 67.069C116.803 66.669 115.988 66.349 115.078 66.109C114.178 65.859 113.203 65.734 112.153 65.734C111.853 65.734 111.613 65.864 111.433 66.124C111.253 66.374 111.118 66.724 111.028 67.174C110.938 67.574 110.868 68.039 110.818 68.569C110.778 69.089 110.758 69.639 110.758 70.219C110.758 71.519 110.778 72.634 110.818 73.564C110.868 74.484 110.963 75.229 111.103 75.799C111.353 76.789 111.848 77.284 112.588 77.284Z" fill="#F5F4F4"/>
<path d="M64.4756 111.304C63.9056 111.304 63.5006 111.129 63.2606 110.779C63.0206 110.439 62.8206 109.944 62.6606 109.294C62.5806 108.884 62.5106 108.434 62.4506 107.944C62.3906 107.454 62.3456 106.944 62.3156 106.414C62.2856 105.874 62.2606 105.324 62.2406 104.764C62.2306 104.194 62.2256 103.624 62.2256 103.054C62.2456 102.334 62.2756 101.614 62.3156 100.894C62.3556 100.174 62.4106 99.4845 62.4806 98.8245C62.5506 98.1545 62.6306 97.5595 62.7206 97.0395C62.8206 96.5095 62.9256 96.0895 63.0356 95.7795C63.2956 95.0395 63.6406 94.4495 64.0706 94.0095C64.5006 93.5695 64.9956 93.2545 65.5556 93.0645C66.1156 92.8645 66.7006 92.7645 67.3106 92.7645C68.0106 92.7645 68.6156 92.9195 69.1256 93.2295C69.6456 93.5395 70.0456 93.9895 70.3256 94.5795C70.4856 94.9095 70.6456 95.3195 70.8056 95.8095C70.9656 96.2995 71.1156 96.8195 71.2556 97.3695C71.4056 97.9195 71.5406 98.4695 71.6606 99.0195C71.7906 99.5595 71.9006 100.059 71.9906 100.519C72.1006 101.089 72.2256 101.594 72.3656 102.034C72.5156 102.464 72.7356 102.679 73.0256 102.679C73.3156 102.679 73.5306 102.499 73.6706 102.139C73.8206 101.779 73.9356 101.379 74.0156 100.939C74.0956 100.429 74.1856 99.8845 74.2856 99.3045C74.3856 98.7245 74.4956 98.1495 74.6156 97.5795C74.7456 96.9995 74.8806 96.4495 75.0206 95.9295C75.1706 95.4095 75.3206 94.9495 75.4706 94.5495C75.7406 93.9795 76.1206 93.5395 76.6106 93.2295C77.1106 92.9195 77.7506 92.7645 78.5306 92.7645C79.1106 92.7645 79.6406 92.8695 80.1206 93.0795C80.6006 93.2795 81.0306 93.5745 81.4106 93.9645C81.7906 94.3545 82.1106 94.8345 82.3706 95.4045C82.6006 95.8745 82.7956 96.4995 82.9556 97.2795C83.1256 98.0495 83.2556 98.9245 83.3456 99.9045C83.4356 100.874 83.4906 101.889 83.5106 102.949C83.5106 103.479 83.5106 104.009 83.5106 104.539C83.5106 105.069 83.5006 105.599 83.4806 106.129C83.4606 106.649 83.4306 107.164 83.3906 107.674C83.3606 108.174 83.3106 108.664 83.2406 109.144C83.1006 109.724 82.8756 110.149 82.5656 110.419C82.2656 110.679 81.8306 110.809 81.2606 110.809C80.9106 110.809 80.6306 110.719 80.4206 110.539C80.2206 110.359 80.0906 110.104 80.0306 109.774C80.0106 109.434 79.9906 109.079 79.9706 108.709C79.9506 108.329 79.9256 107.939 79.8956 107.539C79.8756 107.129 79.8556 106.719 79.8356 106.309C79.8156 105.899 79.7956 105.494 79.7756 105.094C79.7456 104.304 79.7056 103.544 79.6556 102.814C79.6056 102.074 79.5456 101.414 79.4756 100.834C79.4156 100.244 79.3406 99.7995 79.2506 99.4995C79.0806 98.9395 78.8856 98.5145 78.6656 98.2245C78.4556 97.9345 78.1406 97.7895 77.7206 97.7895C77.3706 97.7895 77.0606 97.9345 76.7906 98.2245C76.5306 98.5045 76.3356 98.9245 76.2056 99.4845C76.1556 99.7245 76.0956 100.029 76.0256 100.399C75.9556 100.759 75.8806 101.159 75.8006 101.599C75.7306 102.029 75.6556 102.479 75.5756 102.949C75.5056 103.409 75.4356 103.864 75.3656 104.314C75.2956 104.754 75.2306 105.164 75.1706 105.544C75.0206 106.324 74.7706 106.914 74.4206 107.314C74.0806 107.704 73.6006 107.899 72.9806 107.899C72.2406 107.899 71.7106 107.639 71.3906 107.119C71.0706 106.599 70.7806 105.899 70.5206 105.019C70.4606 104.729 70.3856 104.374 70.2956 103.954C70.2056 103.534 70.1106 103.089 70.0106 102.619C69.9106 102.139 69.8106 101.664 69.7106 101.194C69.6106 100.724 69.5156 100.299 69.4256 99.9195C69.3456 99.5295 69.2706 99.2145 69.2006 98.9745C69.0706 98.4545 68.8906 98.0745 68.6606 97.8345C68.4406 97.5945 68.1756 97.4745 67.8656 97.4745C67.4256 97.4745 67.1056 97.6395 66.9056 97.9695C66.7156 98.2995 66.5606 98.8245 66.4406 99.5445C66.4006 99.7845 66.3656 100.094 66.3356 100.474C66.3056 100.854 66.2806 101.284 66.2606 101.764C66.2406 102.234 66.2206 102.739 66.2006 103.279C66.1906 103.819 66.1856 104.369 66.1856 104.929C66.1856 105.509 66.1806 106.059 66.1706 106.579C66.1706 107.099 66.1606 107.584 66.1406 108.034C66.1206 108.484 66.0956 108.884 66.0656 109.234C66.0456 109.574 66.0156 109.854 65.9756 110.074C65.8656 110.444 65.6906 110.739 65.4506 110.959C65.2206 111.189 64.8956 111.304 64.4756 111.304ZM103.969 111.184C103.559 111.184 103.204 111.079 102.904 110.869C102.614 110.669 102.354 110.364 102.124 109.954C102.034 109.684 101.934 109.369 101.824 109.009C101.714 108.639 101.604 108.264 101.494 107.884C101.394 107.504 101.289 107.144 101.179 106.804C101.069 106.454 100.959 106.164 100.849 105.934C100.709 105.614 100.534 105.379 100.324 105.229C100.124 105.079 99.824 104.974 99.424 104.914C99.224 104.894 98.919 104.869 98.509 104.839C98.109 104.799 97.669 104.769 97.189 104.749C96.709 104.719 96.259 104.704 95.839 104.704C95.199 104.704 94.549 104.719 93.889 104.749C93.229 104.779 92.659 104.819 92.179 104.869C91.769 104.909 91.459 104.994 91.249 105.124C91.049 105.244 90.884 105.459 90.754 105.769C90.624 106.059 90.489 106.409 90.349 106.819C90.209 107.229 90.069 107.659 89.929 108.109C89.789 108.559 89.649 108.999 89.509 109.429C89.299 109.909 89.044 110.274 88.744 110.524C88.454 110.764 88.049 110.884 87.529 110.884C87.129 110.884 86.794 110.819 86.524 110.689C86.254 110.559 86.054 110.344 85.924 110.044C85.794 109.744 85.729 109.349 85.729 108.859C85.729 108.399 85.794 107.849 85.924 107.209C86.054 106.559 86.229 105.859 86.449 105.109C86.679 104.359 86.929 103.599 87.199 102.829C87.479 102.059 87.759 101.319 88.039 100.609C88.329 99.8895 88.604 99.2445 88.864 98.6745C89.124 98.0945 89.349 97.6345 89.539 97.2945C89.879 96.6645 90.264 96.0595 90.694 95.4795C91.134 94.8995 91.619 94.3845 92.149 93.9345C92.689 93.4745 93.279 93.1145 93.919 92.8545C94.559 92.5845 95.264 92.4495 96.034 92.4495C97.274 92.4495 98.389 92.8245 99.379 93.5745C100.379 94.3245 101.264 95.3195 102.034 96.5595C102.324 96.9795 102.614 97.5245 102.904 98.1945C103.204 98.8545 103.499 99.5895 103.789 100.399C104.079 101.199 104.349 102.029 104.599 102.889C104.849 103.749 105.069 104.594 105.259 105.424C105.459 106.254 105.609 107.019 105.709 107.719C105.819 108.419 105.874 109.009 105.874 109.489C105.874 110.109 105.704 110.544 105.364 110.794C105.024 111.054 104.559 111.184 103.969 111.184ZM99.619 102.319C99.839 102.279 99.984 102.194 100.054 102.064C100.124 101.934 100.159 101.729 100.159 101.449C100.159 101.139 100.104 100.759 99.994 100.309C99.894 99.8495 99.754 99.3695 99.574 98.8695C99.394 98.3595 99.184 97.8845 98.944 97.4445C98.604 96.7945 98.204 96.2545 97.744 95.8245C97.284 95.3845 96.789 95.1645 96.259 95.1645C95.679 95.1645 95.124 95.3945 94.594 95.8545C94.074 96.3045 93.614 96.8795 93.214 97.5795C93.044 97.8595 92.869 98.1795 92.689 98.5395C92.509 98.8995 92.344 99.2695 92.194 99.6495C92.044 100.029 91.919 100.389 91.819 100.729C91.729 101.059 91.684 101.339 91.684 101.569C91.684 101.869 91.804 102.079 92.044 102.199C92.284 102.309 92.669 102.364 93.199 102.364C94.319 102.364 95.289 102.364 96.109 102.364C96.929 102.364 97.624 102.364 98.194 102.364C98.774 102.364 99.249 102.349 99.619 102.319ZM112.05 110.899C111.28 110.899 110.65 110.784 110.16 110.554C109.68 110.314 109.305 109.954 109.035 109.474C108.765 108.994 108.565 108.394 108.435 107.674C108.295 106.954 108.195 106.114 108.135 105.154C108.085 104.184 108.06 103.104 108.06 101.914C108.06 100.724 108.09 99.6045 108.15 98.5545C108.21 97.5045 108.325 96.5795 108.495 95.7795C108.735 94.6995 109.13 93.8545 109.68 93.2445C110.24 92.6245 111.07 92.3145 112.17 92.3145C113.75 92.3145 115.235 92.5045 116.625 92.8845C118.025 93.2645 119.295 93.7795 120.435 94.4295C121.575 95.0695 122.555 95.7995 123.375 96.6195C124.205 97.4295 124.84 98.2745 125.28 99.1545C125.73 100.024 125.955 100.869 125.955 101.689C125.955 102.659 125.73 103.599 125.28 104.509C124.84 105.419 124.21 106.264 123.39 107.044C122.57 107.814 121.585 108.489 120.435 109.069C119.295 109.639 118.015 110.089 116.595 110.419C115.185 110.739 113.67 110.899 112.05 110.899ZM113.64 107.314C114.74 107.314 115.73 107.194 116.61 106.954C117.5 106.714 118.28 106.394 118.95 105.994C119.62 105.594 120.18 105.139 120.63 104.629C121.09 104.119 121.435 103.589 121.665 103.039C121.895 102.479 122.01 101.939 122.01 101.419C122.01 100.959 121.875 100.474 121.605 99.9645C121.335 99.4445 120.94 98.9395 120.42 98.4495C119.91 97.9495 119.295 97.4995 118.575 97.0995C117.855 96.6995 117.04 96.3795 116.13 96.1395C115.23 95.8895 114.255 95.7645 113.205 95.7645C112.905 95.7645 112.665 95.8945 112.485 96.1545C112.305 96.4045 112.17 96.7545 112.08 97.2045C111.99 97.6045 111.92 98.0695 111.87 98.5995C111.83 99.1195 111.81 99.6695 111.81 100.249C111.81 101.549 111.83 102.664 111.87 103.594C111.92 104.514 112.015 105.259 112.155 105.829C112.405 106.819 112.9 107.314 113.64 107.314Z" fill="#F5F4F4"/>
</svg>
